<svg width="37" height="57" viewBox="0 0 37 57" fill="none" xmlns="http://www.w3.org/2000/svg">
<path d="M15.5 12.9167V28.4167H0V12.9167H5.16667V2.58333C5.16667 1.1625 6.32917 0 7.75 0C9.17083 0 10.3333 1.1625 10.3333 2.58333V12.9167H15.5ZM0 33.5833V38.75C0 42.1083 2.17 44.95 5.16667 46.035V56.8333H10.3333V46.035C13.33 44.95 15.5 42.1083 15.5 38.75V33.5833H0ZM31 12.9167V2.58333C31 1.1625 29.8375 0 28.4167 0C26.9958 0 25.8333 1.1625 25.8333 2.58333V12.9167H20.6667V28.4167H36.1667V12.9167H31ZM20.6667 33.5833V38.75C20.6667 42.1083 22.8367 44.95 25.8333 46.035V56.8333H31V46.035C33.9967 44.95 36.1667 42.1083 36.1667 38.75V33.5833H20.6667Z" fill="url(#paint0_linear_787_540)"/>
<defs>
<linearGradient id="paint0_linear_787_540" x1="18.0833" y1="0" x2="18.0833" y2="56.8333" gradientUnits="userSpaceOnUse">
<stop stop-color="#00AAFF"/>
<stop offset="1" stop-color="#137DB3"/>
<stop offset="1" stop-color="#3C5A69"/>
</linearGradient>
</defs>
</svg>
