<svg width="37" height="37" viewBox="0 0 37 37" fill="none" xmlns="http://www.w3.org/2000/svg">
<path d="M13.875 21.2604C12.0867 21.2604 10.5604 20.6344 9.29625 19.3824C8.03208 18.1305 7.4 16.6189 7.4 14.8478C7.4 13.0768 8.03208 11.5652 9.29625 10.3133C10.5604 9.06128 12.0867 8.4353 13.875 8.4353C15.6633 8.4353 17.1896 9.06128 18.4537 10.3133C19.7179 11.5652 20.35 13.0768 20.35 14.8478C20.35 16.6189 19.7179 18.1305 18.4537 19.3824C17.1896 20.6344 15.6633 21.2604 13.875 21.2604ZM13.875 17.5961C14.6458 17.5961 15.3013 17.3286 15.8415 16.7936C16.3817 16.2586 16.6512 15.61 16.65 14.8478C16.65 14.0844 16.3799 13.4352 15.8397 12.9003C15.2995 12.3653 14.6446 12.0984 13.875 12.0996C13.1042 12.0996 12.4486 12.3671 11.9084 12.9021C11.3682 13.4371 11.0988 14.0857 11.1 14.8478C11.1 15.6112 11.3701 16.2604 11.9103 16.7954C12.4505 17.3304 13.1054 17.5973 13.875 17.5961ZM26.825 23.0925C25.53 23.0925 24.4354 22.6498 23.5412 21.7642C22.6471 20.8787 22.2 19.7947 22.2 18.5121C22.2 17.2296 22.6471 16.1456 23.5412 15.2601C24.4354 14.3745 25.53 13.9318 26.825 13.9318C28.12 13.9318 29.2146 14.3745 30.1087 15.2601C31.0029 16.1456 31.45 17.2296 31.45 18.5121C31.45 19.7947 31.0029 20.8787 30.1087 21.7642C29.2146 22.6498 28.12 23.0925 26.825 23.0925ZM15.355 32.803C16.7425 30.0242 18.5925 28.1688 20.905 27.2369C23.2175 26.3049 25.1908 25.8395 26.825 25.8408C27.5342 25.8408 28.2279 25.9018 28.9062 26.024C29.5846 26.1461 30.2475 26.2988 30.895 26.482C31.635 25.3217 32.2208 24.0697 32.6525 22.7261C33.0842 21.3825 33.3 19.9779 33.3 18.5121C33.3 14.4203 31.8662 10.9545 28.9987 8.11467C26.1312 5.27483 22.6317 3.85491 18.5 3.85491C14.3683 3.85491 10.8687 5.27483 8.00125 8.11467C5.13375 10.9545 3.7 14.4203 3.7 18.5121C3.7 19.8863 3.87698 21.1993 4.23095 22.4513C4.58492 23.7033 5.1171 24.8636 5.8275 25.9324C7.03 25.3217 8.30157 24.8484 9.6422 24.5125C10.9828 24.1766 12.3938 24.0086 13.875 24.0086C14.8617 24.0086 15.8095 24.0929 16.7184 24.2614C17.6274 24.43 18.5296 24.6511 19.425 24.9247C18.7158 25.2911 18.0449 25.7186 17.4122 26.2072C16.7795 26.6958 16.1863 27.2149 15.6325 27.7645C15.2625 27.7035 14.9468 27.6729 14.6853 27.6729H13.875C12.8575 27.6729 11.8708 27.7798 10.915 27.9935C9.95917 28.2073 9.03417 28.5279 8.14 28.9554C9.12667 29.9326 10.2293 30.7497 11.4478 31.4069C12.6663 32.064 13.9687 32.5294 15.355 32.803ZM18.5 36.8337C15.9408 36.8337 13.5358 36.3525 11.285 35.39C9.03417 34.4275 7.07625 33.1224 5.41125 31.4746C3.74625 29.8257 2.42843 27.8867 1.4578 25.6576C0.487167 23.4284 0.00123333 21.0466 0 18.5121C0 15.9777 0.485933 13.5959 1.4578 11.3667C2.42967 9.13762 3.74748 7.19859 5.41125 5.54965C7.07625 3.90071 9.03417 2.59561 11.285 1.63434C13.5358 0.673065 15.9408 0.191819 18.5 0.190598C21.0592 0.190598 23.4642 0.671844 25.715 1.63434C27.9658 2.59683 29.9237 3.90193 31.5887 5.54965C33.2537 7.19859 34.5722 9.13762 35.544 11.3667C36.5159 13.5959 37.0012 15.9777 37 18.5121C37 21.0466 36.5141 23.4284 35.5422 25.6576C34.5703 27.8867 33.2525 29.8257 31.5887 31.4746C29.9237 33.1236 27.9658 34.4293 25.715 35.3918C23.4642 36.3543 21.0592 36.8349 18.5 36.8337Z" fill="url(#paint0_linear_318_1631)"/>
<defs>
<linearGradient id="paint0_linear_318_1631" x1="18.5" y1="0.190598" x2="18.5" y2="36.8337" gradientUnits="userSpaceOnUse">
<stop stop-color="#00AAFF"/>
<stop offset="1" stop-color="#137DB3"/>
<stop offset="1" stop-color="#3C5A69"/>
</linearGradient>
</defs>
</svg>
