<svg width="37" height="22" viewBox="0 0 37 22" fill="none" xmlns="http://www.w3.org/2000/svg">
<path d="M3.7 18.4446C2.6825 18.4446 1.81115 18.0855 1.08595 17.3673C0.360753 16.6491 -0.00123019 15.7868 3.14092e-06 14.7803V3.78739C3.14092e-06 2.7797 0.362603 1.91676 1.0878 1.19855C1.813 0.48035 2.68374 0.121859 3.7 0.123081H33.3C34.3175 0.123081 35.1888 0.482182 35.914 1.20039C36.6392 1.91859 37.0012 2.78093 37 3.78739V14.7803C37 15.788 36.6374 16.6509 35.9122 17.3692C35.187 18.0874 34.3163 18.4458 33.3 18.4446H31.45V14.7803H33.3V3.78739H3.7V14.7803H14.8V18.4446H3.7ZM22.3387 20.46L21.09 17.7118L18.315 16.4751C17.9142 16.2918 17.7138 16.0323 17.7138 15.6964C17.7138 15.3605 17.9142 15.1009 18.315 14.9177L21.09 13.681L22.3387 10.9328C22.5237 10.5358 22.7858 10.3373 23.125 10.3373C23.4642 10.3373 23.7262 10.5358 23.9112 10.9328L25.16 13.681L27.935 14.9177C28.305 15.0704 28.49 15.33 28.49 15.6964C28.49 16.0628 28.305 16.3224 27.935 16.4751L25.16 17.7118L23.9112 20.46C23.7571 20.8264 23.495 21.0096 23.125 21.0096C22.755 21.0096 22.4929 20.8264 22.3387 20.46ZM27.195 11.7115L26.5937 10.429L25.2987 9.8335C24.9596 9.68082 24.79 9.49761 24.79 9.28385C24.79 9.0701 24.9596 8.88689 25.2987 8.73421L26.5937 8.13876L27.195 6.85625C27.3492 6.52035 27.5342 6.35241 27.75 6.35241C27.9658 6.35241 28.1508 6.52035 28.305 6.85625L28.9062 8.13876L30.2013 8.73421C30.5404 8.88689 30.71 9.0701 30.71 9.28385C30.71 9.49761 30.5404 9.68082 30.2013 9.8335L28.9062 10.429L28.305 11.7115C28.1508 12.0474 27.9658 12.2153 27.75 12.2153C27.5342 12.2153 27.3492 12.0474 27.195 11.7115Z" fill="url(#paint0_linear_318_1634)"/>
<defs>
<linearGradient id="paint0_linear_318_1634" x1="18.5" y1="0.123077" x2="18.5" y2="21.0096" gradientUnits="userSpaceOnUse">
<stop stop-color="#00AAFF"/>
<stop offset="1" stop-color="#137DB3"/>
<stop offset="1" stop-color="#3C5A69"/>
</linearGradient>
</defs>
</svg>
