<svg width="37" height="23" viewBox="0 0 37 23" fill="none" xmlns="http://www.w3.org/2000/svg">
<path d="M18.5 0C19.9311 0 21.3035 0.568488 22.3154 1.5804C23.3273 2.59232 23.8958 3.96477 23.8958 5.39583C23.8958 6.8269 23.3273 8.19935 22.3154 9.21126C21.3035 10.2232 19.9311 10.7917 18.5 10.7917C17.0689 10.7917 15.6965 10.2232 14.6846 9.21126C13.6727 8.19935 13.1042 6.8269 13.1042 5.39583C13.1042 3.96477 13.6727 2.59232 14.6846 1.5804C15.6965 0.568488 17.0689 0 18.5 0ZM7.70833 3.85417C8.57167 3.85417 9.37333 4.08542 10.0671 4.50167C9.83583 6.70625 10.4833 8.89542 11.8092 10.6067C11.0383 12.0867 9.49667 13.1042 7.70833 13.1042C6.48171 13.1042 5.30532 12.6169 4.43796 11.7495C3.57061 10.8822 3.08333 9.70579 3.08333 8.47917C3.08333 7.25254 3.57061 6.07615 4.43796 5.2088C5.30532 4.34144 6.48171 3.85417 7.70833 3.85417ZM29.2917 3.85417C30.5183 3.85417 31.6947 4.34144 32.562 5.2088C33.4294 6.07615 33.9167 7.25254 33.9167 8.47917C33.9167 9.70579 33.4294 10.8822 32.562 11.7495C31.6947 12.6169 30.5183 13.1042 29.2917 13.1042C27.5033 13.1042 25.9617 12.0867 25.1908 10.6067C26.535 8.8714 27.1589 6.68497 26.9329 4.50167C27.6267 4.08542 28.4283 3.85417 29.2917 3.85417ZM8.47917 19.6562C8.47917 16.465 12.9654 13.875 18.5 13.875C24.0346 13.875 28.5208 16.465 28.5208 19.6562V22.3542H8.47917V19.6562ZM0 22.3542V20.0417C0 17.8987 2.91375 16.095 6.86042 15.5708C5.95083 16.6192 5.39583 18.0683 5.39583 19.6562V22.3542H0ZM37 22.3542H31.6042V19.6562C31.6042 18.0683 31.0492 16.6192 30.1396 15.5708C34.0862 16.095 37 17.8987 37 20.0417V22.3542Z" fill="url(#paint0_linear_1164_398)"/>
<defs>
<linearGradient id="paint0_linear_1164_398" x1="18.5" y1="0" x2="18.5" y2="22.3542" gradientUnits="userSpaceOnUse">
<stop stop-color="#00AAFF"/>
<stop offset="1" stop-color="#137DB3"/>
<stop offset="1" stop-color="#3C5A69"/>
</linearGradient>
</defs>
</svg>
