<svg width="37" height="39" viewBox="0 0 37 39" fill="none" xmlns="http://www.w3.org/2000/svg">
<path d="M33.6008 20.7404C33.8616 20.7404 34.1037 20.851 34.3086 21.0539L36.6927 23.415C37.1024 23.8024 37.1024 24.448 36.6927 24.8354L34.8301 26.68L31.0118 22.8985L32.8744 21.0539C33.0793 20.851 33.34 20.7404 33.6008 20.7404ZM29.9315 23.9684L33.7498 27.7499L22.4626 38.9466H18.6257V35.1467L29.9315 23.9684ZM14.9006 33.4128L11.1754 37.102H3.72514C1.67632 37.102 0 35.4419 0 33.4128V7.58831C0 5.55924 1.67632 3.8991 3.72514 3.8991H11.5107C12.293 1.75935 14.3418 0.209885 16.7632 0.209885C19.1845 0.209885 21.2333 1.75935 22.0156 3.8991H29.8012C31.85 3.8991 33.5263 5.55924 33.5263 7.58831V14.9667L29.8012 18.6559V7.58831H26.076V11.2775H7.45029V7.58831H3.72514V33.4128H14.9006ZM16.7632 3.8991C15.7387 3.8991 14.9006 4.72917 14.9006 5.7437C14.9006 6.75824 15.7387 7.58831 16.7632 7.58831C17.7876 7.58831 18.6257 6.75824 18.6257 5.7437C18.6257 4.72917 17.7876 3.8991 16.7632 3.8991Z" fill="url(#paint0_linear_318_1626)"/>
<defs>
<linearGradient id="paint0_linear_318_1626" x1="18.5" y1="0.209885" x2="18.5" y2="38.9466" gradientUnits="userSpaceOnUse">
<stop stop-color="#00AAFF"/>
<stop offset="1" stop-color="#137DB3"/>
<stop offset="1" stop-color="#3C5A69"/>
</linearGradient>
</defs>
</svg>
