<svg width="21" height="25" viewBox="0 0 21 25" fill="none" xmlns="http://www.w3.org/2000/svg">
<path d="M1.38889 0C1.75725 0 2.11051 0.146329 2.37098 0.406796C2.63145 0.667263 2.77778 1.02053 2.77778 1.38889V2.61111C4.25 2 6.25 1.38889 8.33333 1.38889C12.5 1.38889 12.5 4.16667 15.2778 4.16667C19.4444 4.16667 20.8333 1.38889 20.8333 1.38889V12.5C20.8333 12.5 19.4444 15.2778 15.2778 15.2778C11.1111 15.2778 11.1111 12.5 8.33333 12.5C4.16667 12.5 2.77778 15.2778 2.77778 15.2778V25H0V1.38889C0 1.02053 0.146329 0.667263 0.406796 0.406796C0.667264 0.146329 1.02053 0 1.38889 0Z" fill="url(#paint0_linear_1164_404)"/>
<defs>
<linearGradient id="paint0_linear_1164_404" x1="10.4167" y1="0" x2="10.4167" y2="25" gradientUnits="userSpaceOnUse">
<stop stop-color="#00AAFF"/>
<stop offset="1" stop-color="#137DB3"/>
<stop offset="1" stop-color="#3C5A69"/>
</linearGradient>
</defs>
</svg>
