<svg width="64" height="52" viewBox="0 0 64 52" fill="none" xmlns="http://www.w3.org/2000/svg">
<path d="M12.896 25.6916L19.296 36.7956L11.2 46.9716L0 27.5796L12.896 25.6916ZM48 44.7956V36.1236C50.816 34.8756 52.8 32.0916 52.8 28.7956C52.8 26.9716 52.16 25.2756 51.104 23.9956L57.408 20.3156C60.64 18.4277 61.76 14.2996 59.872 11.0676L55.456 3.38765C54.5556 1.83568 53.0783 0.702457 51.3461 0.234927C49.6138 -0.232604 47.767 0.0034502 46.208 0.89165L20.192 15.9956C17.152 17.6916 16.096 21.5956 17.856 24.6676L22.656 32.9876C24.416 36.0276 28.352 37.0836 31.392 35.3236L37.408 31.8676C38.208 33.7556 39.712 35.2916 41.6 36.1236V44.7956C41.6 48.3156 44.48 51.1956 48 51.1956H64V44.7956H48Z" fill="url(#paint0_linear_787_536)"/>
<defs>
<linearGradient id="paint0_linear_787_536" x1="32" y1="0" x2="32" y2="51.1956" gradientUnits="userSpaceOnUse">
<stop stop-color="#00AAFF"/>
<stop offset="1" stop-color="#137DB3"/>
<stop offset="1" stop-color="#3C5A69"/>
</linearGradient>
</defs>
</svg>
