<svg width="27" height="27" viewBox="0 0 27 27" fill="none" xmlns="http://www.w3.org/2000/svg">
<path d="M25.2902 26.3636C25.7296 26.3636 26.0958 26.2172 26.3887 25.9242C26.6817 25.6313 26.8281 25.2652 26.8281 24.8258V18.8939C26.8281 18.5522 26.7183 18.2529 26.4986 17.9961C26.2789 17.7393 25.9982 17.5748 25.6564 17.5025L20.6034 16.4773C20.2616 16.4285 19.9135 16.4592 19.5591 16.5695C19.2046 16.6799 18.9181 16.8444 18.6993 17.0631L15.2574 20.5051C13.4022 19.3822 11.7057 18.0518 10.1678 16.5139C8.62989 14.976 7.34833 13.3283 6.32307 11.5707L9.83823 7.98232C10.0579 7.76263 10.1985 7.51217 10.26 7.23096C10.3216 6.94975 10.3274 6.63875 10.2776 6.29798L9.3256 1.17172C9.27678 0.829966 9.11811 0.549242 8.84959 0.329545C8.58107 0.109848 8.27594 0 7.93419 0H2.00237C1.56297 0 1.19681 0.146465 0.903882 0.439394C0.610952 0.732323 0.464489 1.09849 0.464489 1.53788C0.464489 4.68687 1.16654 7.75677 2.57065 10.7476C3.97476 13.7384 5.82998 16.387 8.13631 18.6933C10.4426 20.9996 13.0912 22.8548 16.082 24.2589C19.0728 25.663 22.1422 26.3646 25.2902 26.3636Z" fill="url(#paint0_linear_958_394)"/>
<defs>
<linearGradient id="paint0_linear_958_394" x1="13.6463" y1="0" x2="13.6463" y2="26.3636" gradientUnits="userSpaceOnUse">
<stop stop-color="#00AAFF"/>
<stop offset="1" stop-color="#137DB3"/>
<stop offset="1" stop-color="#3C5A69"/>
</linearGradient>
</defs>
</svg>
