<svg width="64" height="55" viewBox="0 0 64 55" fill="none" xmlns="http://www.w3.org/2000/svg">
<path d="M32 0L0 28.8H9.6V54.4H54.4V28.8H64M35.2 48H28.8V44.8H35.2M36.8 37.056V41.6H27.2V37.056C25.3698 35.9994 23.9395 34.3683 23.1308 32.4159C22.322 30.4635 22.1802 28.2988 22.7271 26.2575C23.2741 24.2162 24.4793 22.4125 26.1559 21.126C27.8325 19.8395 29.8867 19.1422 32 19.1422C34.1133 19.1422 36.1675 19.8395 37.8441 21.126C39.5207 22.4125 40.7259 24.2162 41.2729 26.2575C41.8198 28.2988 41.678 30.4635 40.8692 32.4159C40.0605 34.3683 38.6302 35.9994 36.8 37.056Z" fill="url(#paint0_linear_787_538)"/>
<defs>
<linearGradient id="paint0_linear_787_538" x1="32" y1="0" x2="32" y2="54.4" gradientUnits="userSpaceOnUse">
<stop stop-color="#00AAFF"/>
<stop offset="1" stop-color="#137DB3"/>
<stop offset="1" stop-color="#3C5A69"/>
</linearGradient>
</defs>
</svg>
