<svg width="21" height="30" viewBox="0 0 21 30" fill="none" xmlns="http://www.w3.org/2000/svg">
<path d="M10.6466 14.6212C9.67545 14.6212 8.7441 14.2354 8.05741 13.5487C7.37073 12.862 6.98495 11.9307 6.98495 10.9596C6.98495 9.98844 7.37073 9.05709 8.05741 8.3704C8.7441 7.68372 9.67545 7.29794 10.6466 7.29794C11.6177 7.29794 12.549 7.68372 13.2357 8.3704C13.9224 9.05709 14.3082 9.98844 14.3082 10.9596C14.3082 11.4404 14.2135 11.9165 14.0295 12.3608C13.8454 12.805 13.5757 13.2087 13.2357 13.5487C12.8957 13.8887 12.4921 14.1584 12.0478 14.3424C11.6036 14.5265 11.1274 14.6212 10.6466 14.6212ZM10.6466 0.707031C7.92743 0.707031 5.31966 1.7872 3.39694 3.70993C1.47422 5.63265 0.394043 8.24042 0.394043 10.9596C0.394043 18.649 10.6466 30 10.6466 30C10.6466 30 20.8991 18.649 20.8991 10.9596C20.8991 8.24042 19.8189 5.63265 17.8962 3.70993C15.9735 1.7872 13.3657 0.707031 10.6466 0.707031Z" fill="url(#paint0_linear_958_395)"/>
<defs>
<linearGradient id="paint0_linear_958_395" x1="10.6466" y1="0.707031" x2="10.6466" y2="30" gradientUnits="userSpaceOnUse">
<stop stop-color="#00AAFF"/>
<stop offset="1" stop-color="#137DB3"/>
<stop offset="1" stop-color="#3C5A69"/>
</linearGradient>
</defs>
</svg>
