<svg width="64" height="59" viewBox="0 0 64 59" fill="none" xmlns="http://www.w3.org/2000/svg">
<path d="M63.8174 52.5196L51.2982 40.0004C52.5196 36.9469 51.9089 32.9774 49.1608 30.5346C46.4126 27.7865 42.4431 27.1758 39.0843 28.7026L44.8859 34.5041L40.6111 38.779L34.5041 32.6721C32.9774 36.0309 33.5881 40.0004 36.3362 43.0538C39.0843 45.8019 42.7485 46.4126 45.8019 45.1912L58.3211 57.7104C58.9318 58.3211 59.8479 58.3211 60.1532 57.7104L63.2067 54.657C64.1227 53.7409 64.1227 52.8249 63.8174 52.5196ZM33.5881 48.8554H0V42.7485C0 36.0309 10.9925 30.5346 24.4277 30.5346C25.9544 30.5346 27.4812 30.5346 28.7026 30.84C27.7865 32.6721 27.4812 34.5041 27.4812 36.6416C27.4812 41.5271 29.9239 46.1073 33.5881 48.8554ZM24.4277 0C17.7101 0 12.2139 5.49623 12.2139 12.2139C12.2139 18.9315 17.7101 24.4277 24.4277 24.4277C31.1453 24.4277 36.6416 18.9315 36.6416 12.2139C36.6416 5.49623 31.1453 0 24.4277 0Z" fill="url(#paint0_linear_787_541)"/>
<defs>
<linearGradient id="paint0_linear_787_541" x1="32" y1="0" x2="32" y2="58.1685" gradientUnits="userSpaceOnUse">
<stop stop-color="#00AAFF"/>
<stop offset="1" stop-color="#137DB3"/>
<stop offset="1" stop-color="#3C5A69"/>
</linearGradient>
</defs>
</svg>
