<svg width="7" height="12" viewBox="0 0 7 12" fill="none" xmlns="http://www.w3.org/2000/svg">
<path d="M0.292485 9.4625L4.17249 5.5825L0.292485 1.7025C0.19977 1.60999 0.126212 1.50011 0.0760231 1.37913C0.0258341 1.25816 0 1.12847 0 0.9975C0 0.866528 0.0258341 0.736842 0.0760231 0.615868C0.126212 0.494893 0.19977 0.385007 0.292485 0.2925C0.682485 -0.0975 1.31249 -0.0975 1.70249 0.2925L6.29249 4.8825C6.68249 5.2725 6.68249 5.9025 6.29249 6.2925L1.70249 10.8825C1.31249 11.2725 0.682485 11.2725 0.292485 10.8825C-0.0875148 10.4925 -0.0975147 9.8525 0.292485 9.4625Z" fill="white"/>
</svg>
