<svg width="12" height="7" viewBox="0 0 12 7" fill="none" xmlns="http://www.w3.org/2000/svg">
<path d="M9.4625 0.292485L5.5825 4.17249L1.7025 0.292485C1.60999 0.19977 1.50011 0.126212 1.37913 0.0760231C1.25816 0.0258341 1.12847 0 0.9975 0C0.866528 0 0.736842 0.0258341 0.615868 0.0760231C0.494893 0.126212 0.385007 0.19977 0.2925 0.292485C-0.0975 0.682485 -0.0975 1.31249 0.2925 1.70249L4.8825 6.29249C5.2725 6.68249 5.9025 6.68249 6.2925 6.29249L10.8825 1.70249C11.2725 1.31249 11.2725 0.682485 10.8825 0.292485C10.4925 -0.0875148 9.8525 -0.0975147 9.4625 0.292485Z" fill="white"/>
</svg>
