<svg width="64" height="55" viewBox="0 0 64 55" fill="none" xmlns="http://www.w3.org/2000/svg">
<path d="M32 0L0 28.8H9.6V54.4H54.4V28.8H64L32 0ZM32 17.6C39.488 17.6 46.272 20.576 51.2 25.408L47.36 29.184C43.2666 25.1547 37.7437 22.9111 32 22.944C25.984 22.944 20.544 25.312 16.64 29.184L12.8 25.408C17.9266 20.3854 24.8231 17.5808 32 17.6ZM32 28.256C36.48 28.256 40.544 30.048 43.52 32.96L39.68 36.704C37.6275 34.7001 34.8685 33.585 32 33.6C28.992 33.6 26.272 34.784 24.32 36.704L20.48 32.96C23.5539 29.941 27.6915 28.2515 32 28.256ZM32 38.944C35.008 38.944 37.44 41.312 37.44 44.256C37.44 47.2 35.008 49.6 32 49.6C28.992 49.6 26.56 47.2 26.56 44.256C26.56 41.312 28.992 38.944 32 38.944Z" fill="url(#paint0_linear_1160_394)"/>
<defs>
<linearGradient id="paint0_linear_1160_394" x1="32" y1="0" x2="32" y2="54.4" gradientUnits="userSpaceOnUse">
<stop stop-color="#00AAFF"/>
<stop offset="1" stop-color="#137DB3"/>
<stop offset="1" stop-color="#3C5A69"/>
</linearGradient>
</defs>
</svg>
