<svg width="16" height="16" viewBox="0 0 16 16" fill="none" xmlns="http://www.w3.org/2000/svg">
<path d="M8.18557 12.4276L7.88214 12.1959L7.57872 12.4276L3.87872 15.2526L3.87203 15.2577L3.86552 15.263C3.76701 15.3436 3.68394 15.3664 3.60059 15.3633C3.47415 15.3587 3.3774 15.3242 3.29497 15.2662L3.29387 15.2654C3.2061 15.2039 3.13236 15.118 3.07496 14.9923C3.04447 14.9255 3.03318 14.8447 3.07844 14.717L3.08191 14.7072L3.08498 14.6972L4.50998 10.0722L4.61642 9.72674L4.3217 9.51738L0.696697 6.94238L0.690657 6.93809L0.684493 6.93398C0.581195 6.86511 0.53822 6.7944 0.519338 6.71258C0.487936 6.5765 0.497829 6.4762 0.52704 6.39588C0.560646 6.30346 0.622395 6.21048 0.731409 6.1176C0.800978 6.05833 0.883226 6.02465 1.00571 6.02501H1.00714H5.48214H5.85342L5.96078 5.66959L7.40683 0.882683C7.46075 0.736887 7.53236 0.649916 7.61091 0.593768C7.70826 0.524178 7.79462 0.499715 7.88047 0.500005H7.88214C7.96964 0.500005 8.05692 0.525104 8.15438 0.594768C8.233 0.650965 8.30412 0.737556 8.35734 0.882271L9.8035 5.66959L9.91087 6.02501H10.2821H14.7571C14.8801 6.02501 14.9629 6.05898 15.0329 6.1186C15.1422 6.21172 15.2039 6.30454 15.2374 6.39621C15.2665 6.47648 15.2763 6.57669 15.2449 6.71258C15.2261 6.7944 15.1831 6.86511 15.0798 6.93398L15.0736 6.93809L15.0676 6.94238L11.4426 9.51738L11.1479 9.72674L11.2543 10.0722L12.6793 14.6972L12.6826 14.7078L12.6863 14.7182C12.7319 14.8458 12.7206 14.9261 12.6903 14.9923C12.6332 15.1175 12.5594 15.2033 12.4712 15.2649L12.4704 15.2654C12.3874 15.3235 12.2897 15.3583 12.1622 15.3634C12.08 15.3667 11.9978 15.3444 11.8996 15.2637L11.8927 15.258L11.8856 15.2526L8.18557 12.4276Z" stroke="url(#paint0_linear_1066_406)"/>
<defs>
<linearGradient id="paint0_linear_1066_406" x1="7.88214" y1="0" x2="7.88214" y2="15.8637" gradientUnits="userSpaceOnUse">
<stop stop-color="#00AAFF"/>
<stop offset="1" stop-color="#137DB3"/>
<stop offset="1" stop-color="#3C5A69"/>
</linearGradient>
</defs>
</svg>
