<svg width="64" height="64" viewBox="0 0 64 64" fill="none" xmlns="http://www.w3.org/2000/svg">
<path fill-rule="evenodd" clip-rule="evenodd" d="M32.0844 7.91318L18.6292 15.6802L32.0844 23.4608L45.5395 15.6893L32.0844 7.91318ZM52.3927 11.7236L32.0844 0L11.776 11.7236L5.24261 7.9543C4.85255 7.71053 4.4174 7.54778 3.9631 7.47577C3.5088 7.40375 3.04465 7.42394 2.59832 7.53512C2.15198 7.64631 1.7326 7.84622 1.36518 8.12294C0.99775 8.39966 0.689797 8.74752 0.459672 9.14579C0.229548 9.54405 0.0819633 9.98458 0.0257162 10.4411C-0.030531 10.8976 0.00571048 11.3608 0.13228 11.803C0.25885 12.2452 0.473157 12.6574 0.762428 13.0151C1.0517 13.3727 1.41001 13.6684 1.81601 13.8846L8.34484 17.6585V41.1193L28.6578 52.8474V60.5367C28.6578 61.4455 29.0188 62.3171 29.6614 62.9597C30.304 63.6023 31.1756 63.9634 32.0844 63.9634C32.9932 63.9634 33.8647 63.6023 34.5074 62.9597C35.15 62.3171 35.511 61.4455 35.511 60.5367V52.8474L55.8239 41.1193V17.6585L62.3573 13.8846C63.1216 13.4186 63.6731 12.672 63.894 11.8046C64.1149 10.9372 63.9876 10.0177 63.5393 9.24296C63.091 8.46818 62.3574 7.89957 61.4953 7.65874C60.6332 7.41792 59.711 7.524 58.9261 7.9543L52.3927 11.7236ZM48.9707 21.615L35.511 29.3912V44.9343L48.9707 37.1627V21.615ZM15.1981 37.1627L28.6578 44.9297V29.3957L15.1981 21.6105V37.1627Z" fill="url(#paint0_linear_1164_409)"/>
<defs>
<linearGradient id="paint0_linear_1164_409" x1="32" y1="0" x2="32" y2="63.9634" gradientUnits="userSpaceOnUse">
<stop stop-color="#00AAFF"/>
<stop offset="1" stop-color="#137DB3"/>
<stop offset="1" stop-color="#3C5A69"/>
</linearGradient>
</defs>
</svg>
