<svg width="64" height="53" viewBox="0 0 64 53" fill="none" xmlns="http://www.w3.org/2000/svg">
<path d="M58.1818 40.7273H5.81818V5.81818H58.1818M58.1818 0H5.81818C4.2751 0 2.79523 0.612985 1.70411 1.70411C0.612985 2.79523 0 4.2751 0 5.81818V40.7273C0 42.2703 0.612985 43.7502 1.70411 44.8413C2.79523 45.9325 4.2751 46.5455 5.81818 46.5455H20.3636V52.3636H43.6364V46.5455H58.1818C59.7249 46.5455 61.2048 45.9325 62.2959 44.8413C63.387 43.7502 64 42.2703 64 40.7273V5.81818C64 4.2751 63.387 2.79523 62.2959 1.70411C61.2048 0.612985 59.7249 0 58.1818 0Z" fill="url(#paint0_linear_787_539)"/>
<defs>
<linearGradient id="paint0_linear_787_539" x1="32" y1="0" x2="32" y2="52.3636" gradientUnits="userSpaceOnUse">
<stop stop-color="#00AAFF"/>
<stop offset="1" stop-color="#137DB3"/>
<stop offset="1" stop-color="#3C5A69"/>
</linearGradient>
</defs>
</svg>
