<svg width="30" height="30" viewBox="0 0 30 30" fill="none" xmlns="http://www.w3.org/2000/svg">
<path fill-rule="evenodd" clip-rule="evenodd" d="M15 0C6.71571 0 0 6.71571 0 15C0 23.2843 6.71571 30 15 30C23.2843 30 30 23.2843 30 15C30 6.71571 23.2843 0 15 0Z" fill="#E92B2B"/>
<path fill-rule="evenodd" clip-rule="evenodd" d="M27.9933 22.5H2.00684C2.82335 23.9115 3.86328 25.1776 5.07823 26.25H24.922C26.1369 25.1776 27.1768 23.9115 27.9933 22.5Z" fill="#FBFBFB"/>
<path fill-rule="evenodd" clip-rule="evenodd" d="M30 15H0C0 16.2949 0.164076 17.5514 0.472567 18.75H29.5274C29.8359 17.5514 30 16.2949 30 15Z" fill="#FBFBFB"/>
<path fill-rule="evenodd" clip-rule="evenodd" d="M27.9936 7.5H2.00713C1.33573 8.66063 0.815383 9.91962 0.472961 11.25H29.5279C29.1854 9.91962 28.6651 8.66063 27.9936 7.5Z" fill="#FBFBFB"/>
<path fill-rule="evenodd" clip-rule="evenodd" d="M24.9205 3.75H5.07672C7.72101 1.41613 11.1944 0 14.9986 0C18.8028 0 22.2762 1.41613 24.9205 3.75Z" fill="#FBFBFB"/>
<path fill-rule="evenodd" clip-rule="evenodd" d="M13.5004 0.0739746V14.9999H0C0 7.22178 5.92025 0.826365 13.5004 0.0739746Z" fill="#2A2FAF"/>
<path fill-rule="evenodd" clip-rule="evenodd" d="M2.28736 7.0365H2.92768L2.046 7.67708L2.38278 8.71355L1.64062 8.17436C1.83998 7.78489 2.05587 7.40534 2.28736 7.0365Z" fill="#FBFBFB"/>
<path fill-rule="evenodd" clip-rule="evenodd" d="M0.355774 11.7409C0.370935 11.6725 0.386557 11.6043 0.402649 11.5362H1.1638L1.50057 10.4998L1.83735 11.5362H2.92716L2.04548 12.1768L2.38225 13.2133L1.50057 12.5727L0.618897 13.2133L0.955667 12.1768L0.355774 11.7409Z" fill="#FBFBFB"/>
<path fill-rule="evenodd" clip-rule="evenodd" d="M5.34339 3.5214C5.76051 3.17008 6.19712 2.84108 6.65127 2.53625H7.42685L6.54513 3.17683L6.8819 4.21331L6.00024 3.57273L5.11859 4.21331L5.34339 3.5214Z" fill="#FBFBFB"/>
<path d="M6.00113 6L6.33789 7.03647H7.42774L6.54602 7.67705L6.88285 8.71353L6.00113 8.07295L5.11948 8.71353L5.45624 7.67705L4.57452 7.03647H5.66437L6.00113 6Z" fill="#FBFBFB"/>
<path d="M6.00113 10.4998L6.33789 11.5362H7.42774L6.54602 12.1768L6.88285 13.2133L6.00113 12.5727L5.11948 13.2133L5.45624 12.1768L4.57452 11.5362H5.66437L6.00113 10.4998Z" fill="#FBFBFB"/>
<path d="M10.5003 1.5L10.837 2.53648H11.9268L11.0452 3.17705L11.3819 4.21353L10.5003 3.57295L9.61856 4.21353L9.95532 3.17705L9.07367 2.53648H10.1635L10.5003 1.5Z" fill="#FBFBFB"/>
<path d="M10.5003 6L10.837 7.03647H11.9268L11.0452 7.67705L11.3819 8.71353L10.5003 8.07295L9.61856 8.71353L9.95532 7.67705L9.07367 7.03647H10.1635L10.5003 6Z" fill="#FBFBFB"/>
<path d="M10.5003 10.4998L10.837 11.5362H11.9268L11.0452 12.1768L11.3819 13.2133L10.5003 12.5727L9.61856 13.2133L9.95532 12.1768L9.07367 11.5362H10.1635L10.5003 10.4998Z" fill="#FBFBFB"/>
</svg>
