<svg width="64" height="56" viewBox="0 0 64 56" fill="none" xmlns="http://www.w3.org/2000/svg">
<path d="M23.2661 8.72479C26.3514 8.72479 29.3103 9.95041 31.4919 12.132C33.6735 14.3137 34.8992 17.2726 34.8992 20.3578C34.8992 23.4431 33.6735 26.402 31.4919 28.5837C29.3103 30.7653 26.3514 31.9909 23.2661 31.9909C20.1808 31.9909 17.2219 30.7653 15.0403 28.5837C12.8587 26.402 11.6331 23.4431 11.6331 20.3578C11.6331 17.2726 12.8587 14.3137 15.0403 12.132C17.2219 9.95041 20.1808 8.72479 23.2661 8.72479ZM23.2661 37.8074C31.0312 37.8074 46.5322 41.7045 46.5322 49.4405V55.257H0V49.4405C0 41.7045 15.501 37.8074 23.2661 37.8074ZM45.8342 9.77177C51.7089 16.1699 51.7089 25.0401 45.8342 30.9148L40.9483 25.9999C43.3913 22.5681 43.3913 18.1185 40.9483 14.6867L45.8342 9.77177ZM55.4606 0C66.8901 11.7785 66.8028 29.4025 55.4606 40.7157L50.7201 35.9752C58.776 26.7269 58.776 13.5234 50.7201 4.74047L55.4606 0Z" fill="url(#paint0_linear_787_537)"/>
<defs>
<linearGradient id="paint0_linear_787_537" x1="32" y1="0" x2="32" y2="55.257" gradientUnits="userSpaceOnUse">
<stop stop-color="#00AAFF"/>
<stop offset="1" stop-color="#137DB3"/>
<stop offset="1" stop-color="#3C5A69"/>
</linearGradient>
</defs>
</svg>
